<svg xmlns="http://www.w3.org/2000/svg" width="140" height="87" viewBox="0 0 140 87">
    <defs>
        <linearGradient id="a" x1="50%" x2="50%" y1="0%" y2="100%">
            <stop offset="0%" stop-color="#D0E0E6"/>
            <stop offset="100%" stop-color="#A4BDC9"/>
        </linearGradient>
    </defs>
    <g fill="none" fill-rule="evenodd">
        <path fill="#EEEDED" d="M54.303 68.235S7.131 49.265 11.29 7.565C11.711 3.338 15.2-.051 19.473 0c3.086.038 6.705 1.834 10.044 7.88 8.012 14.512 24.786 60.355 24.786 60.355"/>
        <path fill="#DFDFDF" d="M41.576 51.176a159.292 159.292 0 0 1-5.925-8.3l1.381-13.51a.295.295 0 0 0-.297-.326.297.297 0 0 0-.297.265L35.13 42.09c-2.946-4.484-5.902-9.508-8.528-14.908l2.967-16.047a.296.296 0 0 0-.295-.35c-.142 0-.267.1-.293.243l-2.818 15.244c-3.35-7.043-6.109-14.7-7.53-22.616a.298.298 0 0 0-.347-.24.298.298 0 0 0-.242.343c.272 1.516.593 3.023.958 4.517 1.62 6.644 4.102 13.05 6.987 19.005.005.082.04.157.101.208a121.946 121.946 0 0 0 1.9 3.736L14.886 22.73a.301.301 0 0 0-.413.085.295.295 0 0 0 .087.41l14.012 9.085a141.402 141.402 0 0 0 6.489 10.751.277.277 0 0 0 .115.175 159.524 159.524 0 0 0 3.82 5.477c.752.83 1.493 1.652 2.223 2.463h.357z"/>
        <path fill="#DBDBDB" d="M.26 29.819c-.976-3.688.866-7.63 4.444-8.924 2.583-.934 6.163-.557 10.843 3.484 11.233 9.697 39.605 43.003 39.605 43.003S9.885 66.192.259 29.82z"/>
        <path fill="#C3C3C3" d="M28.208 51.176h.864c-3.459-2.561-7.033-5.473-10.482-8.714l-2.548-13.96a.262.262 0 0 0-.304-.208.257.257 0 0 0-.213.299l2.422 13.26C13.006 37.132 8.358 31.732 4.73 25.715a.263.263 0 0 0-.36-.09.255.255 0 0 0-.092.352c3.783 6.274 8.667 11.88 13.838 16.752a.256.256 0 0 0 .148.139c.9.845 1.809 1.667 2.722 2.468l-13.408-2.96a.262.262 0 0 0-.313.195.258.258 0 0 0 .198.307l14.338 3.166a123.136 123.136 0 0 0 6.406 5.133m1.796 0h.541L27.84 41.091a.262.262 0 0 0-.32-.183.256.256 0 0 0-.187.314l2.67 9.954"/>
        <path fill="#EEEDED" d="M140 81.456l-.049.212c-1.165 2.883-25.924 5.199-56.76 5.322-.861.01-1.723.01-2.585.01-4.1 0-8.108-.036-11.972-.116-.98-.017-1.933-.036-2.888-.061-.792-.019-1.586-.036-2.353-.063-.98-.027-1.933-.053-2.888-.088a418.99 418.99 0 0 1-9.503-.408c-.698-.036-1.4-.081-2.098-.116-3.073-.187-5.96-.39-8.618-.62a146.25 146.25 0 0 1-2.374-.222c-.77-.071-1.516-.151-2.259-.232-.724-.07-1.423-.159-2.099-.238-7.756-.932-12.342-2.112-12.342-3.38 0-.994 2.795-1.926 7.707-2.732 10.202-1.678 29.537-2.812 51.687-2.812 32.795 0 59.394 2.484 59.394 5.544"/>
        <path fill="url(#a)" d="M121.933 11.847v68.995H43.915V11.847h78.018z"/>
        <path fill="#91ADB9" d="M27.904 80.842h16.011V11.847h-16.01z"/>
        <path fill="#A2BCC6" d="M43.915 80.842h-16.01v-4.12H41.86l2.054-51.015v55.135"/>
        <path fill="#8AA9B8" d="M121.933 28.28h-72.11l-5.908-11.631V11.85h78.018v.006l-.003-.006H43.915l5.908 11.63h72.11v4.798"/>
        <path fill="#B3CAD2" d="M127.838 23.481H49.823l-5.908-11.63h78.015l5.908 11.63"/>
        <path fill="#7795A6" d="M38.07 27.177H27.905V11.851h16.011v3.696l-5.844 11.63"/>
        <path fill="#B3CAD2" d="M22.06 23.481h16.01l5.845-11.63h-16.01l-5.844 11.63"/>
        <g>
            <path fill="#DBDBDB" d="M54.292 81.268h79.333V65.062H54.292z"/>
            <path fill="#CDCDCD" d="M73.818 81.268h-3.253V65.062h3.253v16.206zM118.222 81.268h-2.263V65.062h2.263v16.206zM122.197 81.268h-2.263V65.062h2.263v16.206z"/>
            <path fill="#758DB0" d="M127.024 81.268H54.292h72.732"/>
            <path fill="#C8C8C8" d="M59.818 64.996h73.809v-6.9H59.818z"/>
            <path fill="#C0BDBD" d="M59.818 64.996h25.49v-6.9h-25.49z"/>
            <path fill="#FFFFFE" d="M88.013 63.498h45.612v-3.483H88.013z"/>
        </g>
    </g>
</svg>
